<svg xmlns="http://www.w3.org/2000/svg" width="219" height="31" viewBox="0 0 219 31">
    <g fill="none" fill-rule="evenodd">
        <path fill="#5B697D" d="M121.294 8.491c1.039 0 2.036.184 2.99.552l.716 5.265-3.96.85-.42-2.294c-1.881.114-3.426.623-4.633 1.53l-.042 9.933h4.127v3.865h-12.424v-3.865h3.538V13.97l-4.043-1.359 1.263-3.864 6.233 2.08c2.359-1.556 4.577-2.335 6.655-2.335zM98.76 13.608c-.843-.864-1.966-1.295-3.37-1.295-1.375 0-2.555.439-3.538 1.316-.982.878-1.53 2.01-1.642 3.397h9.856c-.029-1.416-.464-2.555-1.306-3.418zM96.023 29c-2.106 0-3.952-.433-5.538-1.295-1.587-.864-2.815-2.067-3.685-3.61-.87-1.542-1.306-3.319-1.306-5.328 0-2.038.407-3.843 1.222-5.415.814-1.57 1.965-2.787 3.453-3.652 1.488-.862 3.187-1.295 5.096-1.295 1.91 0 3.586.398 5.033 1.19a8.252 8.252 0 0 1 3.348 3.355c.786 1.444 1.18 3.114 1.18 5.009 0 .737-.07 1.528-.21 2.379h-14.49c.113 1.585.724 2.788 1.833 3.609 1.109.82 2.464 1.231 4.064 1.231 2.33 0 4.422-.736 6.276-2.21l1.684 2.888C101.54 27.952 98.887 29 96.023 29zm-21.331-1.89c-1.195-1.26-1.79-3.191-1.79-5.797v-8.278h-3.496V9.212h3.496V5.561l4.633-1.402v5.053h5.095v3.823h-5.095v6.92c0 3.426.94 5.137 2.821 5.137.759 0 1.699-.282 2.822-.848l.885 3.567c-1.63.792-3.075 1.189-4.338 1.189-2.164 0-3.84-.63-5.033-1.89zm-15.35-15.18c-1.066 0-1.965.2-2.695.594-.73.397-1.095.95-1.095 1.656 0 .71.231 1.247.695 1.614.463.368 1.327.638 2.59.806l2.527.382c2.162.285 3.741.885 4.738 1.807.995.918 1.496 2.199 1.496 3.842 0 2.066-.787 3.645-2.359 4.733C63.667 28.454 61.701 29 59.342 29c-2.976 0-5.53-.638-7.665-1.912l-.758-4.416 4.001-.722.464 2.336c1.15.567 2.385.849 3.706.849 1.235 0 2.253-.204 3.053-.614.8-.412 1.2-1 1.2-1.764 0-.621-.225-1.111-.673-1.465-.45-.354-1.279-.601-2.485-.743l-2.4-.382c-2.078-.31-3.679-.954-4.802-1.932-1.123-.975-1.685-2.243-1.685-3.798 0-1.84.737-3.305 2.211-4.397 1.475-1.088 3.39-1.634 5.75-1.634 2.639 0 4.899.637 6.78 1.91l.758 4.076-3.58.681-.673-2.59c-1.095-.368-2.163-.553-3.202-.553zM36.558 9.212h8.339v15.116h3.496v3.865H36.558v-3.865h3.496V13.035h-3.496V9.212zm7.58-8.406c.533.538.801 1.246.801 2.124 0 .877-.268 1.585-.8 2.122-.534.538-1.236.806-2.106.806-.87 0-1.565-.268-2.085-.806-.52-.537-.78-1.245-.78-2.122 0-.878.26-1.586.78-2.124C40.468.27 41.163 0 42.033 0c.87 0 1.572.269 2.106.806zM21.902 3.184h11.245v4.289h-3.58v16.43h3.58v4.29H21.985v-4.29h2.695V6.666l-1.684 5.688-4.463 12.823h-3.582L9.815 11.846 8.128 6.962l-.042 16.941h2.78v4.29H0v-4.29h3.58V7.473H.042V3.184h11.12l5.643 15.496L21.9 3.184z"/>
        <path fill="#44AD4F" d="M193.982 25.037h3.507V5.308l-4.014-1.381L194.742 0l7.565 2.633v7.857c.845-.52 1.802-.92 2.874-1.209a12.328 12.328 0 0 1 3.211-.433c2.283 0 4.03.678 5.24 2.03 1.212 1.353 1.818 3.31 1.818 5.87v8.289H219v3.928h-10.143v-3.928h1.775V17.44c0-1.555-.296-2.686-.887-3.39-.592-.704-1.536-1.057-2.832-1.057-.648 0-1.394.106-2.24.322-.845.218-1.62.482-2.324.799v10.922h1.733v3.928h-10.1v-3.928zm-35.92-3.432c-.508.475-.761 1.16-.761 2.05 0 1.641 1.098 2.461 3.296 2.461 1.55 0 2.972-.415 4.268-1.25v-3.93l-4.606-.043c-.958 0-1.69.237-2.198.712zm2.366 8.183c-2.62 0-4.613-.527-5.98-1.578-1.366-1.05-2.05-2.582-2.05-4.596 0-1.959.656-3.434 1.965-4.426 1.31-.993 3.234-1.49 5.77-1.49h4.732c0-1.668-.338-2.935-1.014-3.797-.676-.865-1.606-1.297-2.79-1.297-1.182 0-2.31.173-3.38.518l-.38 2.116-3.973-.56.76-4.578a20.54 20.54 0 0 1 7.1-1.252c2.761 0 4.867.749 6.319 2.246 1.45 1.496 2.176 3.669 2.176 6.52v7.164l3.55 1.167-1.31 4.057-5.452-1.898c-2.028 1.12-4.043 1.684-6.043 1.684zM142.362 7.164a11.905 11.905 0 0 0-2.641-.301c-2.452 0-4.34.807-5.664 2.418-1.324 1.612-1.986 3.913-1.986 6.908 0 3.02.67 5.352 2.008 6.994 1.338 1.64 3.219 2.46 5.642 2.46 1.182 0 2.176-.166 2.979-.498.803-.33 1.247-.51 1.33-.54l.889-3.754 4.099.948-1.268 6.132c0 .027-.388.209-1.162.54-.775.33-1.761.639-2.959.926-1.197.288-2.5.432-3.908.432-3.917 0-7.016-1.166-9.298-3.496C128.141 24 127 20.59 127 16.1c0-2.763.528-5.159 1.585-7.186 1.056-2.03 2.535-3.578 4.437-4.643 1.902-1.063 4.12-1.596 6.656-1.596 1.578 0 2.972.166 4.184.497 1.212.33 2.184.683 2.916 1.056.733.376 1.099.59 1.099.648l1.183 6.088-4.141.95-.888-4.276c-.225-.113-.782-.271-1.67-.475zm38.777 5.061a4.426 4.426 0 0 0-.469.22c-.732.404-1.098.966-1.098 1.685 0 .72.232 1.267.697 1.64.209.168.499.316.87.444v-3.989zm4.93 12.476l.116-.058c.803-.419 1.205-1.016 1.205-1.793 0-.632-.227-1.13-.677-1.49a2.44 2.44 0 0 0-.644-.35v3.691zm-1.409.44v-4.477c-.14-.02-.287-.04-.44-.059l-1.673-.27v4.914c.19.012.381.018.574.018.557 0 1.07-.041 1.54-.125zm0-13.206a9.071 9.071 0 0 0-1.285-.094c-.288 0-.564.015-.828.045v4.657c.104.016.21.032.32.047l1.793.275v-4.93zm1.409-5.942v2.53c1.493.302 2.834.861 4.025 1.678l.76 4.144-3.591.692-.676-2.633c-.174-.059-.346-.113-.518-.163v4.84c1.831.319 3.194.896 4.088 1.734 1 .934 1.5 2.236 1.5 3.907 0 2.1-.788 3.705-2.366 4.812-.935.657-2.01 1.12-3.222 1.387V31h-1.409v-1.861c-.414.039-.843.058-1.285.058-.28 0-.556-.005-.828-.017V31h-1.408v-1.933c-2.05-.25-3.87-.855-5.456-1.814l-.76-4.49 4.014-.733.465 2.374c.56.28 1.138.49 1.737.634V20.1c-1.761-.347-3.143-.963-4.146-1.848-1.127-.991-1.69-2.28-1.69-3.862 0-1.87.74-3.36 2.219-4.47 1.002-.749 2.208-1.246 3.617-1.488v-2.44h1.408v2.285a15.065 15.065 0 0 1 2.113.042V5.993h1.409z"/>
    </g>
</svg>
