<?xml version="1.0" encoding="UTF-8"?>
<svg width="571px" height="120px" viewBox="0 0 571 120" version="1.1" xmlns="http://www.w3.org/2000/svg" xmlns:xlink="http://www.w3.org/1999/xlink">
    <!-- Generator: Sketch 53.2 (72643) - https://sketchapp.com -->
    <title>UI / Logo / Blue</title>
    <desc>Created with Sketch.</desc>
    <defs>
        <linearGradient x1="-228.90879%" y1="99.1936183%" x2="540.372388%" y2="-36.5299575%" id="linearGradient-1">
            <stop stop-color="#599DE1" offset="0%"></stop>
            <stop stop-color="#75CEFC" offset="100%"></stop>
        </linearGradient>
        <linearGradient x1="-478.90694%" y1="130.632528%" x2="651.542136%" y2="-41.7552%" id="linearGradient-2">
            <stop stop-color="#599DE1" offset="0%"></stop>
            <stop stop-color="#75CEFC" offset="100%"></stop>
        </linearGradient>
        <linearGradient x1="-560.744874%" y1="148.769134%" x2="527.536039%" y2="-27.1968157%" id="linearGradient-3">
            <stop stop-color="#599DE1" offset="0%"></stop>
            <stop stop-color="#75CEFC" offset="100%"></stop>
        </linearGradient>
        <linearGradient x1="-711.377386%" y1="164.347275%" x2="444.007459%" y2="-9.21664219%" id="linearGradient-4">
            <stop stop-color="#599DE1" offset="0%"></stop>
            <stop stop-color="#75CEFC" offset="100%"></stop>
        </linearGradient>
        <linearGradient x1="-812.821038%" y1="176.950623%" x2="318.383197%" y2="10.5318701%" id="linearGradient-5">
            <stop stop-color="#599DE1" offset="0%"></stop>
            <stop stop-color="#75CEFC" offset="100%"></stop>
        </linearGradient>
        <linearGradient x1="-867.434809%" y1="201.463042%" x2="214.259886%" y2="25.5157901%" id="linearGradient-6">
            <stop stop-color="#599DE1" offset="0%"></stop>
            <stop stop-color="#75CEFC" offset="100%"></stop>
        </linearGradient>
        <linearGradient x1="5.93351073e-05%" y1="50.0155728%" x2="100.00928%" y2="50.0155728%" id="linearGradient-7">
            <stop stop-color="#75CEFC" offset="0%"></stop>
            <stop stop-color="#75CEFC" offset="100%"></stop>
        </linearGradient>
    </defs>
    <g id="Startpage" stroke="none" stroke-width="1" fill="none" fill-rule="evenodd">
        <g id="Logo" transform="translate(-113.000000, -240.000000)">
            <g id="Group-2">
                <g id="UI-/-Logo-/-Blue" transform="translate(113.000000, 240.000000)">
                    <g id="UP_logo_colour">
                        <path d="M41.4446403,45.85625 C40.5451635,45.85625 39.633194,45.85625 38.796181,45.85625 L33.6429288,55.85625 L20.7816606,30.49375 C20.4557251,29.9120159 20.0332767,29.3899886 19.5323874,28.95 C18.6826261,28.2035812 17.567836,27.8317683 16.440436,27.91875 L2.26118459,27.91875 C1.66071667,27.9119561 1.08419068,28.1540117 0.668361192,28.5875 C0.235124925,29.0035714 -0.0067899056,29.5804328 -2.04437162e-15,30.18125 C0.0184749887,30.6573864 0.160557671,31.1205007 0.412260174,31.525 L23.7674237,74.45 C21.9809629,77.7458333 20.3340044,80.0791667 18.826548,81.45 C17.3149273,82.825 15.7783212,83.5125 14.1979906,83.5125 L6.70235102,83.5125 C5.96574412,83.504244 5.25837434,83.800472 4.74723837,84.33125 C4.21509499,84.8420421 3.91684021,85.5496788 3.92271802,86.2875 L3.92271802,97.2 C3.91534739,97.9381163 4.21384179,98.6463216 4.74723837,99.15625 C5.25021783,99.694317 5.95353783,99.9997943 6.68985828,100 L14.1854978,100 C17.2324002,100.043214 20.2602877,99.5131849 23.1115552,98.4375 C25.7253964,97.4198562 28.1431399,95.9565242 30.2573983,94.1125 C32.4704417,92.1552926 34.4359779,89.9346446 36.1102435,87.5 C37.9967159,84.7932806 39.7156073,81.9734102 41.2572493,79.05625 L59.2280451,45.85625 L41.4446403,45.85625 Z" id="Path" fill="#F3D637" fill-rule="nonzero"></path>
                        <path d="M85.5002616,64.05 L99.798194,48.2 C100.266364,47.7636852 100.784207,47.3839926 101.341047,47.06875 C102.09033,46.6371948 102.944111,46.4209218 103.808361,46.44375 L118.5248,46.44375 C119.18567,46.4402797 119.820023,46.7035774 120.284387,47.1740927 C120.748751,47.6446081 121.003895,48.2825916 120.992115,48.94375 C121.001542,49.2431162 120.948353,49.5411508 120.835956,49.81875 C120.576622,50.2641213 120.247641,50.6650367 119.861523,51.00625 L101.122424,72.725 L122.010273,95.58125 C122.313412,95.9191542 122.589127,96.2807178 122.834793,96.6625 C122.974902,96.9196236 123.049962,97.2071619 123.053416,97.5 C123.055168,98.1607281 122.791478,98.7944434 122.321615,99.2587027 C121.851752,99.7229621 121.215139,99.9788142 120.554869,99.96875 L105.145084,99.96875 C104.288644,99.9967018 103.436299,99.8389262 102.646537,99.50625 C101.997293,99.1992906 101.418763,98.7608841 100.947525,98.21875 L85.5190007,81.34375 L85.5190007,97.19375 C85.4988213,98.7213503 84.2660799,99.9548088 82.7393677,99.975 L69.7531722,99.975 C68.2288998,99.9514577 66.999885,98.7189582 66.9797856,97.19375 L66.9797856,49.23125 C66.999885,47.7060418 68.2288998,46.4735423 69.7531722,46.45 L82.7206286,46.45 C84.2473408,46.4701912 85.4800822,47.7036497 85.5002616,49.23125 L85.5002616,64.05 Z" id="Path" fill="#F3D637" fill-rule="nonzero"></path>
                        <path d="M161.730916,101.0125 C159.962021,101.036971 158.197683,100.826809 156.483968,100.3875 C155.124303,100.035031 153.813131,99.5165543 152.579989,98.84375 C151.574302,98.2922563 150.640666,97.6183883 149.800356,96.8375 C149.12827,96.2125235 148.502015,95.5399523 147.926446,94.825 L147.926446,116.75625 C147.916229,118.284586 146.680507,119.521027 145.15306,119.53125 L132.204342,119.53125 C130.676895,119.521027 129.441173,118.284586 129.430956,116.75625 L129.430956,49.25625 C129.444467,47.7282729 130.677288,46.4919562 132.204342,46.475 L144.65335,46.475 C146.163228,46.504789 147.381053,47.720565 147.414244,49.23125 L147.414244,51.59375 C148.038881,50.9125 148.700996,50.1875 149.419328,49.4375 C150.202516,48.6339772 151.104125,47.9552689 152.092773,47.425 C153.328877,46.7793531 154.643162,46.296188 156.002998,45.9875 C157.87737,45.5757367 159.79346,45.3848553 161.712177,45.41875 C164.683929,45.3987903 167.638601,45.8697012 170.457089,46.8125 C173.147147,47.7020723 175.606786,49.1770066 177.65915,51.13125 C179.810374,53.2177849 181.511105,55.7235672 182.656243,58.49375 C184.005861,61.8321056 184.721842,65.3929003 184.767515,68.99375 C184.838307,70.0270833 184.871621,71.4166667 184.867456,73.1625 C184.867456,74.9125 184.836225,76.2875 184.767515,77.33125 C184.721842,80.9320997 184.005861,84.4928944 182.656243,87.83125 C181.511105,90.6014328 179.810374,93.1072151 177.65915,95.19375 C175.599937,97.1521649 173.143652,98.644272 170.457089,99.56875 C167.650987,100.54067 164.700339,101.028856 161.730916,101.0125 L161.730916,101.0125 Z M166.365719,76.1 C166.571852,74.182614 166.571852,72.248636 166.365719,70.33125 C166.197206,68.0626942 165.374878,65.8917005 163.998347,64.08125 C162.624146,62.2979167 160.333812,61.40625 157.127344,61.40625 C155.787898,61.3753125 154.456554,61.6221588 153.217118,62.13125 C152.18716,62.5567889 151.25898,63.1958165 150.493703,64.00625 C149.786416,64.7813985 149.212312,65.6683991 148.794691,66.63125 C148.384619,67.5846752 148.107193,68.5898779 147.970171,69.61875 C147.695323,72.0129621 147.695323,74.4307879 147.970171,76.825 C148.107193,77.8538721 148.384619,78.8590748 148.794691,79.8125 C149.21077,80.776177 149.785032,81.6634212 150.493703,82.4375 C151.25898,83.2479335 152.18716,83.8869611 153.217118,84.3125 C154.456554,84.8215912 155.787898,85.0684375 157.127344,85.0375 C160.350469,85.0375 162.640803,84.14375 163.998347,82.35625 C165.377911,80.5451078 166.200523,78.3711953 166.365719,76.1 L166.365719,76.1 Z" id="Shape" fill="#F3D637" fill-rule="nonzero"></path>
                        <path d="M258.031145,28.75 C258.564541,29.2599284 258.863036,29.9681337 258.855665,30.70625 L258.855665,97.20625 C258.842538,98.7291905 257.622756,99.9662873 256.101017,100 L242.596374,100 C241.072101,99.9764577 239.843086,98.7439582 239.822987,97.21875 L239.822987,44.375 L214.924971,44.375 L214.924971,97.18125 C214.904791,98.7088503 213.67205,99.9423088 212.145338,99.9625 L198.66568,99.9625 C197.138625,99.9455438 195.905804,98.7092271 195.892293,97.18125 L195.892293,30.7 C195.905804,29.1720229 197.138625,27.9357062 198.66568,27.91875 L256.101017,27.91875 C256.830968,27.9198899 257.528556,28.2203208 258.031145,28.75 L258.031145,28.75 Z" id="Path" fill="url(#linearGradient-1)" fill-rule="nonzero"></path>
                        <path d="M325.21706,69.3 C325.287852,70.3333333 325.321166,71.65625 325.317002,73.26875 C325.312838,74.88125 325.279524,76.2020833 325.21706,77.23125 C325.0934,80.441601 324.317665,83.5931317 322.937137,86.49375 C321.58105,89.3633159 319.670379,91.9357256 317.315407,94.0625 C314.771938,96.3047862 311.819546,98.0343834 308.620465,99.15625 C301.243362,101.631219 293.260795,101.631219 285.883692,99.15625 C282.683282,98.0372599 279.730363,96.3073541 277.18875,94.0625 C274.818436,91.940924 272.89455,89.3678759 271.529542,86.49375 C270.149652,83.5938302 269.380009,80.4411358 269.268358,77.23125 C269.197565,76.2020833 269.162169,74.88125 269.162169,73.26875 C269.162169,71.65625 269.197565,70.3333333 269.268358,69.3 C269.316598,66.093849 270.051453,62.9353323 271.423354,60.0375 C272.79627,57.1672083 274.733818,54.6035648 277.12004,52.5 C279.691557,50.2584195 282.656819,48.5142551 285.864953,47.35625 C293.231059,44.8147452 301.23562,44.8147452 308.601726,47.35625 C311.808506,48.5171406 314.773261,50.2610069 317.346639,52.5 C319.735478,54.6045277 321.662414,57.1816548 323.005847,60.06875 C324.345546,62.9693221 325.097111,66.1069141 325.21706,69.3 Z M287.738863,76.7125 C287.818025,79.0524188 288.838404,81.2611452 290.568467,82.8375 C292.234164,84.3208333 294.44746,85.0604167 297.208354,85.05625 C299.969248,85.0520833 302.180461,84.3125 303.841995,82.8375 C305.572057,81.2611452 306.592436,79.0524188 306.671599,76.7125 C306.94644,74.3872694 306.94644,72.0377306 306.671599,69.7125 C306.589625,67.373251 305.569726,65.1655638 303.841995,63.5875 C302.176297,62.1125 299.965084,61.375 297.208354,61.375 C294.451624,61.375 292.238328,62.1125 290.568467,63.5875 C288.840736,65.1655638 287.820837,67.373251 287.738863,69.7125 C287.472351,72.0382143 287.472351,74.3867857 287.738863,76.7125 L287.738863,76.7125 Z" id="Shape" fill="url(#linearGradient-2)" fill-rule="nonzero"></path>
                        <path d="M332.419121,60.9625 C332.56778,59.0876367 333.226648,57.2892868 334.324262,55.7625 C335.690726,53.7772483 337.417571,52.0663593 339.415051,50.71875 C341.84874,49.0584749 344.518948,47.7752707 347.335443,46.9125 C350.734543,45.8718203 354.275039,45.3678496 357.829339,45.41875 C361.399872,45.370351 364.956444,45.8742108 368.373205,46.9125 C371.256391,47.7858674 373.970476,49.1426426 376.399786,50.925 C378.509092,52.4767079 380.263723,54.4603383 381.546791,56.74375 C382.713508,58.8186495 383.332633,61.1567758 383.345745,63.5375 C383.39742,65.2652375 383.082336,66.9842996 382.421283,68.58125 C381.6857,70.1283029 380.714244,71.5515441 379.541708,72.8 C380.975305,74.129736 382.189618,75.6780423 383.139615,77.3875 C384.006389,79.0906986 384.435726,80.9830273 384.388888,82.89375 C384.367631,85.2831766 383.721578,87.6254051 382.514978,89.6875 C381.179991,91.9936989 379.35461,93.9780347 377.168089,95.5 C374.611146,97.2911159 371.776964,98.6488516 368.779219,99.51875 C365.221077,100.555946 361.528859,101.05934 357.823092,101.0125 C354.22899,101.051851 350.649391,100.550416 347.20427,99.525 C344.28527,98.6590853 341.498499,97.3973692 338.921588,95.775 C336.817801,94.4864848 334.969258,92.8211925 333.46851,90.8625 C332.285375,89.4008419 331.567366,87.6178371 331.407209,85.74375 C331.332439,85.0081186 331.621646,84.2823474 332.181759,83.8 C332.716695,83.2741578 333.436946,82.9800527 334.186842,82.98125 L346.63585,82.98125 C347.4553,82.9352458 348.272263,83.1077921 349.003223,83.48125 C349.546657,83.8125 350.146308,84.1625 350.802177,84.525 C351.598239,84.9568841 352.435194,85.3086096 353.300723,85.575 C354.77601,85.9595819 356.29963,86.1259299 357.823092,86.06875 C359.763832,86.1111247 361.701851,85.901033 363.588488,85.44375 C365.093863,85.0375 365.849673,84.19375 365.849673,82.875 C365.849673,81.7041667 365.095945,80.8708333 363.588488,80.375 C361.720068,79.8122492 359.773593,79.552709 357.823092,79.60625 L354.637445,79.60625 C353.110733,79.5860588 351.877992,78.3526003 351.857812,76.825 L351.857812,69.5125 C351.881341,67.9873409 353.113124,66.7576111 354.637445,66.7375 L357.823092,66.7375 C359.541233,66.7967972 361.254192,66.5164475 362.86391,65.9125 C364.171483,65.3625 364.823187,64.5729167 364.819023,63.54375 C364.814858,62.5145833 364.163154,61.725 362.86391,61.175 C361.252932,60.576329 359.540613,60.2982073 357.823092,60.35625 C356.466857,60.2949756 355.110227,60.4683532 353.812925,60.86875 C353.042895,61.1484582 352.320319,61.5447362 351.670422,62.04375 C351.146485,62.474199 350.595691,62.8708346 350.021381,63.23125 C349.294168,63.6161 348.475174,63.7933998 347.654008,63.74375 L335.198754,63.74375 C334.445674,63.7456087 333.722506,63.4489822 333.187424,62.91875 C332.629348,62.4299685 332.342924,61.7006771 332.419121,60.9625 Z" id="Path" fill="url(#linearGradient-3)" fill-rule="nonzero"></path>
                        <path d="M433.141777,100 C431.615065,99.9798088 430.382323,98.7463503 430.362144,97.21875 L430.362144,74.55625 L410.917206,98.85 C410.351633,99.5809018 409.473466,100.000534 408.549833,99.98125 L396.644259,99.98125 C395.919686,99.9957232 395.224533,99.6946948 394.739117,99.15625 C394.234284,98.6311914 393.956078,97.928538 393.964568,97.2 L393.964568,49.23125 C393.984747,47.7036497 395.217488,46.4701912 396.744201,46.45 L409.705411,46.45 C411.232123,46.4701912 412.464864,47.7036497 412.485044,49.23125 L412.485044,71.98125 L431.929982,47.60625 C432.464767,46.8919585 433.305444,46.4725342 434.197413,46.475 L446.127972,46.475 C447.654685,46.4951912 448.887426,47.7286497 448.907605,49.25625 L448.907605,97.225 C448.887426,98.7526003 447.654685,99.9860588 446.127972,100.00625 L433.141777,100 Z" id="Path" fill="url(#linearGradient-4)" fill-rule="nonzero"></path>
                        <path d="M479.333656,64.05 L493.637834,48.2 C494.106004,47.7636852 494.623847,47.3839926 495.180687,47.06875 C495.938824,46.6309482 496.804384,46.4144323 497.679233,46.44375 L512.389426,46.44375 C513.055161,46.4335264 513.69663,46.6936341 514.167432,47.1647096 C514.638234,47.635785 514.89819,48.2776272 514.887972,48.94375 C514.894419,49.2428919 514.841336,49.5403291 514.731813,49.81875 C514.470089,50.2624531 514.141398,50.6630148 513.75738,51.00625 L495.018281,72.725 L515.899884,95.58125 C516.205017,95.9174978 516.480861,96.2792315 516.724404,96.6625 C516.869198,96.9308108 516.940323,97.2327305 516.930534,97.5375 C516.932287,98.1982281 516.668596,98.8319434 516.198734,99.2962027 C515.728871,99.7604621 515.092257,100.016314 514.431988,100.00625 L498.984724,100.00625 C498.128285,100.034202 497.275939,99.8764262 496.486177,99.54375 C495.836933,99.2367906 495.258403,98.7983841 494.787166,98.25625 L479.352395,81.38125 L479.352395,97.23125 C479.338884,98.7592271 478.106063,99.9955438 476.579008,100.0125 L463.592813,100.0125 C462.0661,99.9923088 460.833359,98.7588503 460.81318,97.23125 L460.81318,49.23125 C460.833359,47.7036497 462.0661,46.4701912 463.592813,46.45 L476.560269,46.45 C478.087323,46.4669562 479.320145,47.7032729 479.333656,49.23125 L479.333656,64.05 Z" id="Path" fill="url(#linearGradient-5)" fill-rule="nonzero"></path>
                        <path d="M518.223532,84.74375 C518.125675,80.3917493 520.044086,76.2389269 523.420509,73.49375 C526.880996,70.54375 532.521464,68.38125 540.341915,67.00625 L552.384909,65 C552.442077,63.5271449 551.967591,62.0828947 551.048187,60.93125 C550.152874,59.86875 548.60794,59.3375 546.413383,59.3375 C545.162547,59.2725464 543.913739,59.4993455 542.765505,60 C542.102127,60.3285704 541.474201,60.724394 540.891595,61.18125 C540.39898,61.6594355 539.799353,62.0129922 539.142613,62.2125 C538.501662,62.3602235 537.845147,62.4294809 537.1875,62.41875 L524.070131,62.41875 C523.444161,62.4391175 522.834835,62.21497 522.371119,61.79375 C521.924059,61.3696476 521.713883,60.7527748 521.808946,60.14375 C522.035656,58.3423948 522.745825,56.6361335 523.864001,55.20625 C525.267604,53.3360707 526.993711,51.7317205 528.961036,50.46875 C531.360856,48.9199625 533.963161,47.7105962 536.694037,46.875 C539.838329,45.8877138 543.118049,45.4005312 546.413383,45.43125 C550.107734,45.3614154 553.789514,45.8825658 557.319539,46.975 C560.140991,47.8573333 562.750149,49.3126734 564.98383,51.25 C566.973662,53.0205859 568.509584,55.2432879 569.462475,57.73125 C570.44781,60.3815271 570.934886,63.191259 570.899139,66.01875 L570.899139,97.2125 C570.885628,98.7404771 569.652807,99.9767938 568.125752,99.99375 L555.158296,99.99375 C553.631241,99.9767938 552.39842,98.7404771 552.384909,97.2125 L552.384909,94.33125 C550.729943,96.3924981 548.639448,98.0615981 546.26347,99.21875 C543.827387,100.41875 540.620919,101.020833 536.644066,101.025 C533.966144,101.065518 531.301369,100.642628 528.767398,99.775 C526.634798,99.0492062 524.674383,97.8918459 523.008249,96.375 C521.467795,94.9372824 520.257324,93.1823578 519.460312,91.23125 C518.62199,89.1722634 518.201565,86.9669334 518.223532,84.74375 L518.223532,84.74375 Z M541.684884,87.1125 C543.126824,87.1252654 544.55792,86.8622148 545.901181,86.3375 C547.155893,85.8549504 548.308631,85.1404308 549.299204,84.23125 C550.251314,83.3487978 551.019762,82.2867893 551.560389,81.10625 C552.112665,79.8962682 552.394066,78.5801637 552.384909,77.25 L542.915418,78.6875 C541.313947,78.9339305 539.786716,79.5315192 538.44302,80.4375 C537.373142,81.1459123 536.733859,82.3476166 536.744008,83.63125 C536.744008,84.9395833 537.172925,85.8479167 538.030759,86.35625 C539.15956,86.9300066 540.421226,87.1911185 541.684884,87.1125 Z" id="Shape" fill="url(#linearGradient-6)" fill-rule="nonzero"></path>
                        <path d="M110.085959,40.09375 L46.5853997,40.09375 C45.7975091,40.0934439 45.0686031,39.6759986 44.669295,38.9963945 C44.2699869,38.3167905 44.2599003,37.4765043 44.6427798,36.7875 L53.3002435,21.1625 C53.6924012,20.4567991 54.4358798,20.0190636 55.2428634,20.01875 L118.749669,20.01875 C119.53756,20.0190561 120.266466,20.4365014 120.665774,21.1161055 C121.065082,21.7957095 121.075169,22.6359957 120.692289,23.325 L112.034826,38.95 C111.640593,39.6566907 110.894817,40.0943714 110.085959,40.09375 L110.085959,40.09375 Z" id="Path" fill="#F3D637" fill-rule="nonzero"></path>
                        <path d="M125.114717,20.04375 L61.6079106,20.04375 C60.8203379,20.0459859 60.0906757,19.6300693 59.6909658,18.9510673 C59.2912558,18.2720653 59.2814829,17.4318763 59.6652907,16.74375 L68.3227544,1.11875 C68.723438,0.421695289 69.4679819,-0.00571135942 70.2716206,-1.9842255e-16 L133.77218,-1.9842255e-16 C134.560071,0.00030607879 135.288977,0.417751381 135.688285,1.09735546 C136.087593,1.77695953 136.09768,2.61724573 135.7148,3.30625 L127.057336,18.93125 C126.657117,19.624906 125.915178,20.0498001 125.114717,20.04375 L125.114717,20.04375 Z" id="Path" fill="url(#linearGradient-7)" fill-rule="nonzero"></path>
                    </g>
                </g>
            </g>
        </g>
    </g>
</svg>