<?xml version="1.0" encoding="utf-8"?>
<!-- Generator: Adobe Illustrator 21.0.0, SVG Export Plug-In . SVG Version: 6.00 Build 0)  -->
<svg version="1.1" id="Layer_1" xmlns="http://www.w3.org/2000/svg" xmlns:xlink="http://www.w3.org/1999/xlink" x="0px" y="0px"
	 viewBox="0 0 300 120" style="enable-background:new 0 0 300 120;" xml:space="preserve">
<style type="text/css">
	.st0{fill:#D80409;}
</style>
<g>
	<title>Logo_KF_Online_1</title>
	<path class="st0" d="M103.2,43.9c0-11.3,4-21.7,10.7-29.8H31.4C14,14.1,0,28.1,0,45.5l0,0c0,17.4,14,31.4,31.4,31.4h85.4
		C108.4,68.5,103.2,56.8,103.2,43.9z M54.3,66.2c-1.2-0.1-2.4-0.6-3.1-1.6l-11.1-15L39,50.8v11.8c-0.1,2.3-2,4-4.2,3.9
		c-2-0.1-3.8-1.7-3.9-3.9V28.2c0.2-2.3,2.2-3.9,4.4-3.7c1.9,0.2,3.5,1.7,3.7,3.7v11l11.4-12.9c0.8-1,1.9-1.6,3.2-1.6
		c1.7,0,4,1.6,4,3.7c0.1,1-0.3,1.8-1,2.5L45.3,43.7l12.6,16.7c0.4,0.5,0.6,1.3,0.6,1.9C58.4,64.6,56.6,66.3,54.3,66.2z M81.2,41.4
		c2-0.1,3.9,1.5,4,3.7c-0.1,2-1.8,3.8-3.9,3.7h-0.1H70.3v13.6c-0.2,2.3-2.2,3.9-4.4,3.7c-1.9-0.2-3.5-1.7-3.7-3.7V28.9
		c0.1-2.4,2.2-4.1,4.4-4.1h15.6c2.2,0,3.9,1.6,4,3.8c-0.1,2-1.9,3.7-4,3.6l0,0h-12v9.4h10.9L81.2,41.4L81.2,41.4z"/>
	<path class="st0" d="M150,5c-22.1,0-40,17.5-40,38.9s18,38.9,40,38.9s40-17.5,40-38.9S172.1,5,150,5z M135.5,54.1
		c-4,0-7.3-3.1-7.3-7.1c0-3.9,3.2-7.1,7.3-7.1c4,0,7.3,3.1,7.3,7.1S139.6,54.1,135.5,54.1z M150.1,65c-2.9-2.8-4.5-6.7-4.6-10.6
		c0.1-4,1.8-7.8,4.6-10.6c2.9,2.8,4.5,6.6,4.6,10.6C154.6,58.4,152.9,62.2,150.1,65z M164.3,54.1c-4,0-7.3-3.1-7.3-7.1
		c0-3.9,3.2-7.1,7.3-7.1c4,0,7.3,3.1,7.3,7.1S168.3,54.1,164.3,54.1z M173,33.9c-10.1,0.6-18.7,4.5-22.9,9.9
		c-4.2-5.4-12.8-9.3-23-9.9c0.2-0.2,0.3-0.3,0.5-0.5C140.3,21.3,160.6,21.5,173,33.9L173,33.9z"/>
	<g>
		<path class="st0" d="M262.9,32.1c-4.4,0-6.5,2.9-6.5,6.9v3.1h13V39C269.4,34.9,267.3,32.1,262.9,32.1z"/>
		<path class="st0" d="M268.6,14.1h-82.3C193,22.2,197,32.7,197,43.9c0,12.8-5.2,24.5-13.6,33h85.2c17.4,0,31.4-14,31.4-31.4l0,0
			C300.1,28.1,286,14.1,268.6,14.1z M245.4,51.7c0,8.1-5.5,14-14.8,14c-9.5,0-14.8-5.9-14.8-14v-23c0.1-2.2,1.9-3.8,4.1-3.7
			c0,0,0,0,0.1,0c2.2-0.1,4,1.6,4.1,3.8v23c0,4.1,2,6.9,6.6,6.9c4.4,0,6.5-2.9,6.5-6.9V28.7c0.1-2.2,1.9-3.8,4.1-3.7
			c2.2-0.1,4.1,1.5,4.2,3.8v23L245.4,51.7L245.4,51.7z M277.7,62.1c-0.1,2.2-1.9,3.8-4,3.8h-0.1c-2.2,0.1-4-1.6-4.1-3.8V49.8h-13
			v12.3c-0.1,2.2-1.9,3.8-4.1,3.8c-2.2,0.1-4.1-1.5-4.2-3.8V39c0-8.1,5.5-14,14.8-14c9.5,0,14.8,5.9,14.8,14L277.7,62.1L277.7,62.1z
			"/>
	</g>
</g>
<g>
	<path class="st0" d="M22.3,109.8v-4.1c0-2.9,1.5-5.4,5.3-5.4c3.8,0,5.3,2.5,5.3,5.4v4.1c0,3-1.8,5.4-5.3,5.4
		C24,115.2,22.3,112.8,22.3,109.8z M25.1,105.8v4.1c0,1.6,0.8,2.8,2.5,2.8c1.7,0,2.5-1.1,2.5-2.8v-4.1c0-1.7-0.7-2.8-2.5-2.8
		C25.8,103,25.1,104.1,25.1,105.8z"/>
	<path class="st0" d="M81.8,115.2c-0.8,0-1.4-0.6-1.4-1.3v-4.8H76v4.8c0,0.7-0.7,1.3-1.4,1.3c-0.8,0-1.4-0.6-1.4-1.3v-12.2
		c0-0.7,0.6-1.3,1.4-1.3c0.8,0,1.4,0.6,1.4,1.3v4.8h4.4v-4.8c0-0.7,0.7-1.3,1.4-1.3c0.8,0,1.4,0.6,1.4,1.3v12.2
		C83.2,114.6,82.6,115.2,81.8,115.2z"/>
	<path class="st0" d="M126.1,102.1c0.1-0.8,0.7-1.5,1.6-1.5h5.6c0.9,0,1.6,0.7,1.6,1.5v11.8c0,0.7-0.7,1.3-1.4,1.3
		c-0.8,0-1.4-0.6-1.4-1.3v-10.7h-3.2l-0.6,8.1c-0.2,2.3-1.1,3.9-3.2,3.9c-1.1,0-2.2,0-2.2-1.3c0-0.9,0.7-1.4,1.4-1.4
		c0.2,0,0.3,0.1,0.5,0.1h0.1c0.3,0,0.5-0.4,0.6-1.2L126.1,102.1z"/>
	<path class="st0" d="M177.4,114.2c-0.2,0.6-0.9,1-1.4,1c-0.8,0-1.5-0.5-1.5-1.3c0-0.1,0-0.3,0.1-0.5l4-11.6
		c0.3-0.8,0.7-1.4,1.7-1.4s1.4,0.6,1.7,1.4l4,11.6c0,0.1,0.1,0.3,0.1,0.5c0,0.8-0.6,1.3-1.5,1.3c-0.5,0-1.2-0.4-1.4-1l-0.7-2.1h-4.4
		L177.4,114.2z M180.6,106.3c-0.2-0.6-0.3-1.4-0.4-2c-0.1,0.6-0.2,1.4-0.4,2l-1.1,3.5h2.9L180.6,106.3z"/>
	<path class="st0" d="M227.2,115.2c-0.9,0-1.5-0.6-1.5-1.4v-12.1c0-0.7,0.6-1.3,1.4-1.3c0.8,0,1.5,0.6,1.5,1.3v7.7
		c1.9-3.3,2.9-5.2,4.7-8.3c0.3-0.5,0.8-0.8,1.4-0.8c0.9,0,1.5,0.6,1.5,1.4v12.1c0,0.7-0.6,1.3-1.4,1.3c-0.8,0-1.5-0.6-1.5-1.3v-7.7
		l-4.7,8.3C228.3,114.9,227.7,115.2,227.2,115.2z M230.8,97.7c-0.4,0-0.8-0.2-1.2-0.6c-0.2-0.3-0.6-0.5-0.9-0.5
		c-0.6,0-1.1,0.4-0.9,1.1c0.4,1.2,1.9,1.8,3,1.8c1.1,0,2.7-0.7,3-1.8c0.2-0.8-0.3-1.1-0.9-1.1c-0.4,0-0.7,0.2-0.9,0.5
		C231.6,97.5,231.1,97.7,230.8,97.7z"/>
	<path class="st0" d="M285.2,115.2c-0.8,0-1.4-0.6-1.4-1.3v-4.8h-4.4v4.8c0,0.7-0.7,1.3-1.4,1.3c-0.8,0-1.4-0.6-1.4-1.3v-12.2
		c0-0.7,0.6-1.3,1.4-1.3c0.8,0,1.4,0.6,1.4,1.3v4.8h4.4v-4.8c0-0.7,0.7-1.3,1.4-1.3s1.4,0.6,1.4,1.3v12.2
		C286.6,114.6,286,115.2,285.2,115.2z"/>
</g>
</svg>
