<svg xmlns="http://www.w3.org/2000/svg" width="114" height="30" viewBox="0 0 114 30">
    <defs>
        <radialGradient id="a" cx="69.512%" cy="16.522%" r="103.776%" fx="69.512%" fy="16.522%" gradientTransform="scale(-.98536 -1) rotate(-78.216 -.208 .861)">
            <stop offset="0%" stop-color="#F26922"/>
            <stop offset="55.295%" stop-color="#AA3694"/>
            <stop offset="100%" stop-color="#61399B"/>
        </radialGradient>
    </defs>
    <g fill="none" fill-rule="evenodd">
        <path fill="none" d="M0 0h115v30H0z"/>
        <path fill="#6D5BCD" d="M8 9.335h4.34l2.999 8.598h.036l3.017-8.598h4.322v13.176h-2.87V12.406h-.036L16.387 22.51h-2.189l-3.292-10.105h-.037V22.51H8V9.335zm34.198 0h3.899l5.536 9.156h.037V9.335h2.87v13.176h-3.753l-5.683-9.38h-.037v9.38h-2.87V9.335zm15.866 0h8.847v2.68h-5.977v2.456h5.646v2.68h-5.646v2.68h6.308v2.68h-9.178V9.335zm14.763 2.568h-3.715V9.335h10.3v2.568h-3.715v10.608h-2.87V11.903zm8.915-2.568h2.869v5.471l5.058-5.471h3.752l-5.794 6.123 6.29 7.053h-4.01l-5.296-6.253v6.253h-2.87V9.335zm18.22 0h2.373L108 22.511h-3.237l-1.122-2.791h-5.058l-1.085 2.791h-3.164l5.628-13.176zm1.104 3.834l-1.582 4.094h3.182l-1.6-4.094z"/>
        <path fill="url(#a)" d="M13.866 3.842h-3.504a3.74 3.74 0 0 0-1.242-.846 4.218 4.218 0 0 0-1.664-.316c-.613 0-1.168.105-1.665.316-.496.211-.922.506-1.278.884a3.89 3.89 0 0 0-.818 1.35 4.906 4.906 0 0 0-.285 1.693c0 .095.002.189.006.28H.434a9.312 9.312 0 0 1-.004-.28c0-1.055.175-2.01.524-2.866A6.29 6.29 0 0 1 2.416 1.87 6.43 6.43 0 0 1 4.642.484C5.5.16 6.438 0 7.456 0s1.956.161 2.814.484a6.43 6.43 0 0 1 2.225 1.386 6.23 6.23 0 0 1 1.37 1.972zm.594 2.45c.015.206.022.417.022.631 0 1.055-.175 2.01-.524 2.866a6.29 6.29 0 0 1-1.463 2.187 6.43 6.43 0 0 1-2.225 1.386c-.858.323-1.796.484-2.814.484s-1.956-.161-2.814-.484a6.43 6.43 0 0 1-2.226-1.386A6.29 6.29 0 0 1 .912 9.684h3.361a3.734 3.734 0 0 0 1.518 1.166c.497.21 1.052.316 1.665.316s1.168-.105 1.664-.316c.497-.211.923-.506 1.279-.884.355-.379.628-.825.818-1.34.19-.515.285-1.083.285-1.703 0-.216-.012-.426-.036-.631h2.994z" transform="translate(25 9)"/>
    </g>
</svg>
